PathFileType	4	(X/Y/Z)	21_coords_data.trc
DataRate	CameraRate	NumFrames	NumMarkers	Units	OrigDataRate	OrigDataStartFrame	OrigNumFrames
30.0	30.0	6	21	m	30.0	28	65
Frame#	Time	THUMB_TIP	THUMB_IP	THUMB_MCP	THUMB_CMC	INDEX_TIP	INDEX_DIP	INDEX_PIP	INDEX_MCP	MIDDLE_TIP	MIDDLE_DIP	MIDDLE_PIP	MIDDLE_MCP	RING_TIP	RING_DIP	RING_PIP	RING_MCP	PINKY_TIP	PINKY_DIP	PINKY_PIP	PINKY_MCP	WRIST
X1	Y1	Z1	X2	Y2	Z2	X3	Y3	Z3	X4	Y4	Z4	X5	Y5	Z5	X6	Y6	Z6	X7	Y7	Z7	X8	Y8	Z8	X9	Y9	Z9	X10	Y10	Z10	X11	Y11	Z11	X12	Y12	Z12	X13	Y13	Z13	X14	Y14	Z14	X15	Y15	Z15	X16	Y16	Z16	X17	Y17	Z17	X18	Y18	Z18	X19	Y19	Z19	X20	Y20	Z20	X21	Y21	Z21
26	0.8999999999999961	0.5462311848997894	-0.004576594961882119	-0.10016976661257443	0.53021717486058	-0.00586620011511485	-0.11659804713771948	0.4997395742576398	-0.010747116165950255	-0.11258400678013036	0.4779843796058124	-0.02391446017343435	-0.07593400599636946	0.501867110210914	-0.0001558621587697262	-0.10562625535363973	0.5167708415294818	-0.0025239616614061156	-0.11563979106933753	0.5291767612386881	0.0164478189734365	-0.12651060192741714	0.49862270821206023	0.03414960961195446	-0.10270445679982254	0.5034944838416471	-0.017678424502965306	-0.10053485072931734	0.5197657856807371	-0.009734202630427014	-0.10090101367270832	0.5388734918095357	0.01062312138502497	-0.10926070717339204	0.5105386631035367	0.03431631364743326	-0.08412272707119889	0.5094537171923575	-0.013190666090997949	-0.08428062091240951	0.5262518675665053	-0.00849552553802757	-0.08883888803878298	0.5458517757954706	0.005942778506798918	-0.09408855019222506	0.5220267717319071	0.027373265555354798	-0.06943445843785573	0.5179143755851179	-0.01989354707280855	-0.07597761063224356	0.5328101820002042	-0.020491946854510612	-0.0843893208593931	0.5485224817219742	-0.006592772471943231	-0.08352409953727052	0.5278829128983185	0.010182504429193218	-0.05916261898571584	0.4622830810018609	-0.023011742144276925	-0.051989820119430985
27	0.9333333333333294	0.5461468643747636	-0.00458582488619752	-0.09972536364404277	0.5303315611181882	-0.005864974025964642	-0.11634583175961621	0.49983459525000973	-0.010769586111641138	-0.1125117930112206	0.47798421809428526	-0.023973934458083157	-0.07593179570533765	0.501725678567813	-0.00015871150219026742	-0.10555018820801426	0.5166229073622303	-0.002603506782942633	-0.11555496458142711	0.529137507525659	0.016242183054263504	-0.12652011803723157	0.49865154541117307	0.03409810179323014	-0.10274180073045913	0.5035115111316002	-0.017956941392504366	-0.1009097235658134	0.5196636574778295	-0.009765333095559381	-0.10083408019588352	0.5388607445920723	0.01046814220842529	-0.10928913037025906	0.5105884099735629	0.034250615208436974	-0.08416509816556011	0.5092823934873563	-0.01326967037713056	-0.08463410910000413	0.5261771561304134	-0.008565180873187916	-0.08880960592577886	0.5458275667848739	0.005782513866371297	-0.09411856022691012	0.5220653107560788	0.027309077558902772	-0.06948762281045395	0.5177754109974775	-0.020046676417122544	-0.07594664534641732	0.5326752486325557	-0.02060409591313994	-0.0843540303116585	0.5484715366767212	-0.006795080577652213	-0.08357917646090868	0.5279216784637497	0.010093302251961922	-0.05922000357209389	0.4622830810018609	-0.023011742144276925	-0.051989820119430985
28	0.9666666666666625	0.5461334795701853	-0.004495215379263673	-0.09926781352876979	0.5304689339107491	-0.005788178009539902	-0.11602938436566174	0.4999524045443281	-0.010741120524686898	-0.11241970351134573	0.4780057320003136	-0.02399864183491318	-0.07591666674788322	0.5014084119759725	0.00010144433929681895	-0.10538059142024075	0.5162763340077926	-0.0025260411223581025	-0.1153826519381797	0.5290337262472384	0.01606475018597875	-0.12650206086036592	0.49863125443721545	0.034101057392523004	-0.10275300984370567	0.5035506566045438	-0.018335119520119347	-0.10139317153047012	0.5194650104520526	-0.009716937651951807	-0.1007147300050103	0.5387855158323684	0.01034653662774676	-0.109292877921494	0.5105754753849665	0.03423971623964506	-0.08420388617233188	0.5090561074041158	-0.013347839197138778	-0.084840198675454	0.525985883657291	-0.00852339680120695	-0.08872702663482629	0.545733113101694	0.005657682860442659	-0.09412368188600329	0.5220428688336116	0.02731743007985321	-0.06954018109970705	0.5175936234419974	-0.020080385498499553	-0.07585294388540376	0.5324636319485256	-0.020629243190974034	-0.084313535014231	0.5483544481448736	-0.006922654722875787	-0.08366283371556865	0.5279121094943156	0.010094140222862702	-0.05930256008675666	0.462283081001861	-0.023011742144276925	-0.051989820119430985
29	0.9999999999999956	0.5463195359770819	-0.004483130692510162	-0.0991641806809222	0.5306108399432299	-0.005764726498664441	-0.11588525663630528	0.5000849360632569	-0.010719531242387004	-0.11235834548598861	0.47799619494844636	-0.023934128677419397	-0.07592550411185311	0.5011910464713452	0.0005337201586356199	-0.10531263682461023	0.5160120683081115	-0.002437293659959705	-0.11528812621630508	0.5288841820879624	0.015975913414620457	-0.1265696298867917	0.49858355969532553	0.034116429299691386	-0.10276983871034817	0.5031826831681397	-0.018031069096360763	-0.10155559183447205	0.5191786783233454	-0.009591377046468619	-0.10060704710826035	0.5386540278311587	0.010243430923315922	-0.1093649409389878	0.5105239526029831	0.034238405585903964	-0.08428331460417948	0.5087465190398452	-0.012978251647151051	-0.08476909839984204	0.5257340433006463	-0.008401910309848604	-0.08870370377436126	0.5455748507066387	0.005601451082827502	-0.09421988090933758	0.5219880350058363	0.027354757777845795	-0.0696195433724488	0.5174964110473205	-0.019898255296087797	-0.07579124308697022	0.5322724675684213	-0.020609990120815214	-0.08440295529909764	0.5481871645762292	-0.006926876148499184	-0.0838490327681582	0.5278668079847275	0.010154950776274596	-0.05943228138910922	0.4622830810018608	-0.023011742144276925	-0.051989820119430985
30	1.0333333333333288	0.5467339479124523	-0.004600918580071611	-0.09982482969911727	0.5305997787065151	-0.005811550747080063	-0.1161411697847613	0.5000885960942754	-0.010692232157563542	-0.11239061188333938	0.47797496075392665	-0.02382524848238199	-0.07594337585307054	0.5011801469959685	0.0009446826512714557	-0.1053813485256051	0.515949083608745	-0.002246473771098101	-0.11536608848294766	0.5287230812244845	0.016195691776896948	-0.12671163156441478	0.49845475057402155	0.03419995304865964	-0.10276772148915025	0.5018346208878413	-0.015311567530490566	-0.09983903798284322	0.5189192347942894	-0.009344630036441592	-0.10055431737560805	0.538471307900715	0.010339543357168135	-0.10947952353856594	0.5103916790981421	0.03432302857296132	-0.08433047178281283	0.5084218365574373	-0.011701015157669081	-0.0841563419467502	0.5254926934468773	-0.008071065211377015	-0.08867400820796001	0.5453878767813559	0.0057885100657149025	-0.09435501447675704	0.5218603477109602	0.027493266239207115	-0.06965522157699888	0.5175394335095398	-0.01959169504334901	-0.07590028270329807	0.5322219177681539	-0.02042048173206512	-0.08466029232773081	0.5480224892808476	-0.0066101258176621824	-0.08400605354122526	0.5277334385376343	0.010399326712464685	-0.059512862741235906	0.4622830810018609	-0.023011742144276925	-0.051989820119430985
31	1.0666666666666622	0.547329394213081	-0.004548116356839271	-0.10152236821121885	0.5302933635371991	-0.005720297582193168	-0.11689766170387594	0.4998515937063771	-0.010526037877289673	-0.11253606683693285	0.47792282483987925	-0.023672508314709906	-0.07598214213605081	0.5014940141048752	0.0008769874213068185	-0.10564351544836725	0.5162417502935903	-0.0019279497099806697	-0.11577448800768175	0.5285438722835908	0.01692162076465542	-0.12697097497748056	0.49816835909333257	0.03438416096032204	-0.10276304275799547	0.5013485949278744	-0.012493644667131543	-0.0975042423253551	0.51880615683418	-0.00891748690127303	-0.1007360572831148	0.5382714363314889	0.010863110064926684	-0.10963776654327523	0.5101030139662259	0.034567616398474166	-0.08432404927506365	0.5085254920045477	-0.010301687697949258	-0.08327823443277854	0.5254499012661333	-0.0076240414655635025	-0.08888132124279158	0.545234385315997	0.006407864979288802	-0.0945257673098211	0.5216201965466867	0.027785865909300655	-0.06962452238102707	0.5178066498730907	-0.019027814884258754	-0.07643961646253278	0.5325042939393041	-0.019887820630024144	-0.08517114834532136	0.5479633819922345	-0.0057203205574524185	-0.08411731853675386	0.5274795146765883	0.010891918869377237	-0.05951390145658614	0.462283081001861	-0.023011742144276925	-0.051989820119430985
